#!OML:ASF F:\VICON\USERDATA\INSTALL\rory3\rory3.ASF
:FULLY-SPECIFIED
:DEGREES
37
root 0.9010522550604614 18.053008270426876 -3.5856225629216443 -4.127291245721194 -1.8139535374722051 0.7395500801752113
lfemur -3.6535921432684555 -1.1740409838575225 -26.075007713281654
ltibia 25.029946314846708
lfoot -13.223993801856741 2.101726769970334
ltoes -1.0895234912920313
rfemur -25.902584143794726 -0.6804513398847609 21.441260304501636
rtibia 68.98504840376455
rfoot -4.170624267999246 -4.543436987447927
rtoes 10.548925539696697
lowerback 1.0 -0.14799672368735062 -2.1134179978483596
upperback 0.8410978454431376 -0.3777530061480179 0.5393487093012843
thorax -5.409774172385879 -0.13747270550417195 1.925258729823123
lowerneck -15.702825128999722 -2.699656589165576 -2.1093619006054753
upperneck 22.561383155133903 -3.2814097531915385 0.30535967230204963
head 9.816453842943226 -1.6634292142971439 -0.030794285181348413
lclavicle 5.30572587084433e-16 -7.821647795399868e-16
lhumerus -28.188814807024713 1.535513078924224 80.92456739780108
lradius 25.98196629122481
lwrist 5.2927944963811004
lhand -27.378115141439153 23.417616039654593
lfingers nan
lthumb -0.6361203556794501 53.676114288309684
rclavicle 1.740000429877498e-16 -1.111901050855387e-15
rhumerus -29.804005070787838 -22.49997230043286 -78.39737336528273
rradius 21.96037058559106
rwrist 4.24430289888127
rhand -18.040234223347973 1.0
rfingers nan
rthumb 8.230178683930928 -7.09305914430314
38
root 0.8649914373115928 17.986071060342134 -2.843779314315988 -3.6687031247842303 -1.0482913605466087 1.1226429399695874
lfemur -1.5109412539802918 -1.3868726286883624 -26.504525707839292
ltibia 24.28336027261661
lfoot -12.992937039430739 1.8625357017016997
ltoes -1.3142243722635278
rfemur -28.172795329650754 -0.4296276936546324 21.08829119604216
rtibia 61.84169905410636
rfoot -6.320256943283921 -5.2542510873647235
rtoes 6.986015471531562
lowerback 1.0 -0.5210614881373379 -2.7598129536006466
upperback 0.8192642850729864 -0.9399028833700831 0.6943284141793236
thorax -5.326471080781953 -0.40518947457498905 2.60375283158023
lowerneck -15.627347244037676 -2.8571257716630587 -2.3442784322777572
upperneck 22.401876890942322 -3.5446721716383522 0.5163647444360364
head 9.763796303998886 -1.7651526340938979 0.05011747618363846
lclavicle -1.6060942126280375e-15 -5.83889447847115e-16
lhumerus -26.50747440310173 0.016564953548831696 81.10807861356476
lradius 27.53654426794415
lwrist 5.98808359934187
lhand -26.75271463387045 24.80850221845938
lfingers nan
lthumb -0.20879017259908195 54.7984840346752
rclavicle -2.1844793950339294e-15 -1.0604068860783105e-15
rhumerus -30.494339831568702 -22.394757541169678 -78.08638190086121
rradius 22.217905374699495
rwrist 3.565873123233402
rhand -18.130346486359173 1.0
rfingers nan
rthumb 8.073343699414432 -7.238402804213483
39
root 0.8302669588826781 17.934027074603044 -1.6946856651044815 -3.051185455609424 -0.37736176519127307 1.723561689974439
lfemur 0.9669907364827264 -1.6613614981138836 -27.087122741560716
ltibia 22.306430451995013
lfoot -12.002651972921477 1.4032605710655415
ltoes -1.871637640108394
rfemur -29.015472354579572 0.32398506523083004 20.247235107018536
rtibia 51.82971215605532
rfoot -7.125711222112246 -6.6972029464363
rtoes 3.4333512726799222
lowerback 1.0 -0.8029080673482349 -3.493837811271044
upperback 0.8134782683156412 -1.3838739672340565 0.7674932021987408
thorax -5.098883885181483 -0.629150493212385 3.07019387538179
lowerneck -15.804293187482306 -3.0059659352115777 -2.450224695943203
upperneck 22.323250124499403 -3.8205740059464137 0.7204997602099431
head 9.743727973644216 -1.8633646940076358 0.10949979191415932
lclavicle 1.883958686601109e-16 -8.739522269931162e-16
lhumerus -25.142624294970748 -1.1818617054811797 81.13842134100923
lradius 28.994616775792306
lwrist 6.785021119324428
lhand -26.66342411420006 25.45993838583853
lfingers nan
lthumb -0.19403625366272126 55.21968671994031
rclavicle -4.2892924949892185e-16 -1.3671434611748574e-15
rhumerus -31.256059771057423 -22.31086431438027 -77.79883596011729
rradius 22.44373682658541
rwrist 3.338838725271996
rhand -18.175485948912318 1.0
rfingers nan
rthumb 7.996638378247826 -7.404636755188695
40
root 0.7848634056878361 17.906662316568262 -1.070881867120077 -2.3816657408186033 0.21715284172603133 2.0020441695585407
lfemur 3.88214431769868 -2.010160708200483 -27.24929943830078
ltibia 19.04565936597384
lfoot -11.20233247730712 0.4869771483247076
ltoes -2.7170330015055897
rfemur -29.166159966794133 2.098461480887168 19.16544549379647
rtibia 39.9251230136452
rfoot -6.927448808649965 -8.867372005872149
rtoes 2.8664738835084256
lowerback 1.0 -1.0244834917354952 -3.92489144531816
upperback 0.7101370827155473 -1.7558965962169348 0.9033527342026044
thorax -4.918475514892202 -0.7990893622464761 3.6028556001837986
lowerneck -16.05780201366005 -3.0802473713984573 -2.466524696155891
upperneck 22.27413101105852 -3.9869893274842534 0.8176708927121892
head 9.752833228171673 -1.9142128058068153 0.12453777364283486
lclavicle -6.985451844773465e-16 -2.514862559521867e-15
lhumerus -24.04624222620472 -1.86829992478006 81.09758034855294
lradius 30.139893007802886
lwrist 7.578510859791942
lhand -26.663005644862572 25.556782432959533
lfingers nan
lthumb -0.24408455483155522 55.171381891823735
rclavicle -9.11693340354805e-16 -2.584194657449738e-15
rhumerus -32.01579418769723 -22.414441719898836 -77.41420608536102
rradius 22.546464940674678
rwrist 3.170400563938841
rhand -18.223393110387473 1.0
rfingers nan
rthumb 7.935919701240557 -7.279723073192105
